<svg width="58" height="58" viewBox="0 0 58 58" fill="none" xmlns="http://www.w3.org/2000/svg">
<g clip-path="url(#clip0_1_29)">
<path d="M25.6188 0.1862C19.0268 1.05185 13.2946 3.79306 8.70892 8.28777C4.75152 12.161 2.09488 16.8332 0.761047 22.2713C0.18783 24.613 -0.0105912 26.4109 0.000432168 29.0411C0.0114556 33.8132 0.948445 37.742 3.09801 42.0702C5.24757 46.3762 8.64279 50.2272 12.7876 53.0239C18.3214 56.7529 25.3432 58.5508 31.6817 57.8516C38.9572 57.0414 44.7665 54.3002 49.6609 49.3394C56.275 42.6251 59.0528 33.9465 57.6418 24.2689C56.8261 18.5868 53.5741 12.3274 49.3522 8.27667C45.3618 4.45895 40.5666 1.86201 35.3194 0.685611C32.3101 0.0197299 28.4409 -0.191133 25.6188 0.1862ZM32.5747 3.84855C40.5225 5.01384 47.5443 10.1522 51.1821 17.4659C52.2844 19.6854 53.0781 22.1936 53.475 24.6573C53.7506 26.3664 53.7506 30.95 53.475 32.537C52.7364 36.732 51.2372 40.2834 48.7239 43.6905C48.305 44.2676 47.2137 45.4883 46.3097 46.3984L44.6673 48.0409L44.7334 48.8955L44.7995 49.7389L44.4799 48.5182C44.1051 47.0643 43.7743 46.2542 43.2893 45.6105C43.091 45.344 42.9256 45.0667 42.9256 44.989C42.9366 44.9224 43.2122 44.656 43.5539 44.4119C44.1712 43.9679 45.0201 43.0689 45.483 42.3587C45.6483 42.1256 45.8799 41.937 46.1114 41.8704C46.6625 41.715 47.2909 41.0603 47.4341 40.4942C47.5885 39.9504 47.5333 39.6952 47.1585 39.1292L46.883 38.7296L47.1255 37.631C47.368 36.5434 47.368 36.5212 47.1806 34.8121C47.0814 33.8687 47.0042 32.9587 47.0042 32.8033C47.0042 32.4149 46.1555 30.7058 45.483 29.7625C44.3586 28.1643 43.9398 27.787 42.3082 26.988C40.4122 26.0447 39.7178 25.8892 37.7996 25.9669C36.1241 26.0335 34.7131 26.3553 33.4234 26.9768C32.1226 27.5984 30.6455 29.0744 29.2235 31.1941C28.7384 31.9044 28.7054 31.9931 28.7054 32.6813C28.7054 33.2139 28.5952 33.7356 28.3085 34.6345C27.8235 36.1549 27.8456 36.5101 28.5401 37.6976C28.8157 38.1636 29.0361 38.6076 29.0361 38.663C29.0361 38.7296 28.8928 38.9405 28.7054 39.1403C28.1212 39.7729 28.1322 40.7495 28.7384 41.4043C29.0802 41.7706 29.9179 42.1146 30.1274 41.9703C30.1825 41.937 30.1384 41.6595 30.0172 41.3599C29.6865 40.4832 29.7746 40.4499 30.1825 41.3045C30.9872 43.0135 32.0785 44.1122 33.8313 44.9778C35.154 45.6215 36.2894 45.9101 37.91 45.9877C38.6375 46.021 39.1335 46.0876 39.0123 46.132C38.3509 46.3651 35.3084 45.9323 33.9084 45.3996L33.1809 45.1221L32.9935 45.3773C32.5857 45.9101 31.7809 47.6747 31.5825 48.4626C31.4723 48.9177 31.3179 49.8388 31.2408 50.5047C31.0203 52.58 30.9321 52.7686 30.7007 51.5478C30.3149 49.528 27.7243 39.9615 27.4047 39.3844C27.3606 39.2957 26.6661 39.0626 25.8614 38.8629C25.0567 38.652 24.1747 38.4078 23.8991 38.2968C23.6347 38.1969 23.3811 38.1415 23.348 38.1748C23.315 38.2081 23.5023 38.5299 23.7669 38.885C24.0315 39.2401 24.4063 39.7839 24.6046 40.0837C25.1228 40.916 26.3243 43.5129 26.6771 44.545C27.0629 45.6438 27.0299 45.7214 25.8724 46.7091C25.4315 47.0865 25.0677 47.475 25.0677 47.5748C25.0677 47.6636 25.5748 48.2185 26.1921 48.7956C27.2613 49.8055 27.3055 49.8721 27.2172 50.1829L27.118 50.5158L27.0739 50.1717C27.0519 49.9054 26.7873 49.6058 25.8944 48.7512C25.2551 48.163 24.737 47.6081 24.737 47.5193C24.737 47.4417 25.1338 47.031 25.6078 46.6093C26.8204 45.5661 26.8314 45.4995 26.3354 44.2231C25.4976 42.0813 23.7008 38.774 23.0393 38.1525C22.83 37.9528 22.7527 37.7641 22.7527 37.4645C22.7527 37.0094 22.852 36.8984 23.4141 36.7098C23.9874 36.5212 24.5495 36.0883 24.9354 35.5445C25.244 35.1117 25.3763 35.034 26.2252 34.7676C26.7432 34.6012 27.1621 34.4236 27.1621 34.3793C27.1621 34.3237 26.9637 34.0352 26.7212 33.7466C26.2472 33.1695 26.1589 32.759 26.4786 32.6591C26.5779 32.6258 26.9637 32.5702 27.3275 32.5258C27.6913 32.4925 28.0219 32.4371 28.0661 32.4038C28.1102 32.3816 27.9998 31.9599 27.8235 31.4716C27.6361 30.9832 27.4928 30.5172 27.4928 30.4506C27.4928 30.3729 27.7794 30.2286 28.1322 30.1065C28.9149 29.8512 30.2486 29.1854 30.2486 29.0522C30.2486 28.9967 29.8408 28.7303 29.3558 28.464C28.3967 27.9534 27.4267 27.1766 27.57 27.0434C27.614 26.999 28.0109 26.8437 28.4297 26.7105C29.488 26.3553 30.6124 25.8338 31.4943 25.2677C31.9022 25.0125 32.2329 24.7795 32.2109 24.7683C32.1667 24.735 29.1795 23.4477 28.8928 23.3478C28.7605 23.2923 28.7274 23.2257 28.7825 23.1259C28.8267 23.037 29.5542 22.3267 30.392 21.5499C31.2187 20.7619 31.9022 20.0849 31.9022 20.0406C31.9022 19.9518 31.2187 19.8297 29.2015 19.5411C28.4739 19.4302 27.8345 19.3192 27.7905 19.2748C27.7354 19.2305 28.2424 18.2538 28.9149 17.1107C30.0062 15.2351 30.2156 14.8356 30.1054 14.8356C30.0833 14.8356 29.1793 15.1575 28.0991 15.557C26.5227 16.1341 26.0928 16.2451 25.9826 16.1341C25.7401 15.8899 25.5086 14.0587 25.5086 12.4162V10.8292L24.6157 11.3064C23.5685 11.8725 22.1685 12.9711 21.5181 13.7369C21.2756 14.0366 21.0221 14.2808 20.978 14.2808C20.9228 14.2808 20.5039 13.7702 20.03 13.1376C19.2142 12.05 17.8363 10.5074 17.682 10.5074C17.6379 10.5074 17.5496 10.9957 17.4835 11.5839C17.2852 13.2486 16.7009 15.2795 16.4142 15.2795C16.3371 15.2795 15.808 15.0576 15.2458 14.7912C14.3419 14.3695 12.9639 13.9477 12.4569 13.9477C12.3247 13.9477 12.3908 14.1475 12.7105 14.8023C13.1955 15.79 13.6364 17.3327 13.5813 17.8654L13.5482 18.2205L12.5561 18.2982C9.66796 18.5202 8.31208 18.6534 8.31208 18.7088C8.31208 18.7533 8.79712 19.2748 9.39238 19.8852C10.5057 21.0172 11.3215 22.2269 11.2663 22.6486C11.2443 22.804 10.6821 23.2701 9.52466 24.0803C8.58767 24.735 7.805 25.3233 7.78296 25.3787C7.76091 25.4343 7.88216 25.5119 8.05854 25.5563C9.23804 25.8115 9.74512 25.9781 10.164 26.2221C10.7372 26.5662 11.3325 27.0767 11.6302 27.4985L11.8506 27.8093L10.616 29.0411C9.57977 30.0842 9.4034 30.2951 9.53568 30.4173C9.62387 30.4949 10.2853 30.7502 11.0128 30.9721C11.7404 31.1941 12.3798 31.4272 12.4349 31.4826C12.49 31.5382 12.4018 32.1042 12.1923 32.881C12.005 33.6024 11.8836 34.235 11.9167 34.2904C11.9719 34.3903 13.7907 34.3015 14.0883 34.1905C14.3639 34.0907 14.4741 34.357 14.5514 35.2338C14.5955 35.7444 14.6616 36.1771 14.7057 36.1993C14.7938 36.2548 16.0284 35.7221 16.0284 35.6333C16.0284 35.6 15.8852 35.367 15.7088 35.1117C14.9703 34.0241 14.4631 32.6591 14.0663 30.6503C13.8018 29.374 13.6805 28.1532 13.8128 28.1532C13.8569 28.1532 13.934 28.5084 13.9781 28.9412C14.1986 31.416 15.334 34.5569 16.3702 35.6C16.6347 35.8664 17.208 36.2437 17.7591 36.4989L18.6852 36.9317L18.652 37.3424L18.6189 37.753L16.1718 38.5743L13.7245 39.3956L13.5041 40.0725C13.3828 40.4499 12.8758 42.1701 12.3908 43.9125C11.4868 47.0753 11.2112 47.8745 11.3435 46.9312C11.3986 46.465 11.3766 46.4206 10.8144 45.7991C7.29793 41.9814 5.12632 37.5088 4.27751 32.315C3.95784 30.4173 3.99091 26.3553 4.33263 24.4908C5.29166 19.2526 7.40817 14.9799 10.8695 11.3286C16.5135 5.39118 24.4173 2.66106 32.5747 3.84855ZM17.66 39.7174C16.8663 41.371 15.4553 45.333 15.5765 45.5439C15.6316 45.6438 16.1057 46.0987 16.6347 46.5648C17.1748 47.031 17.6269 47.4638 17.6489 47.5415C17.682 47.6192 17.5166 47.8633 17.2852 48.0964C17.0426 48.3517 16.9544 48.4071 17.0646 48.2407C17.4945 47.5637 17.5276 47.6524 16.4142 46.6204C15.6646 45.9211 15.3671 45.5772 15.3671 45.3885C15.3671 44.8114 17.5496 39.2513 17.7812 39.2513C17.8363 39.2513 17.7812 39.4622 17.66 39.7174Z" fill="white"/>
</g>
<defs>
<clipPath id="clip0_1_29">
<rect width="58" height="58" fill="white"/>
</clipPath>
</defs>
</svg>
